<svg id="svg" version="1.1" xmlns="http://www.w3.org/2000/svg" xmlns:xlink="http://www.w3.org/1999/xlink" width="400" height="471.4285714285714" viewBox="0, 0, 400,471.4285714285714"><g id="svgg"><path id="path0" d="M156.400 78.000 L 156.400 85.200 149.400 85.200 L 142.400 85.200 142.400 92.200 L 142.400 99.200 135.200 99.200 L 128.000 99.200 128.000 106.400 L 128.000 113.600 120.800 113.600 L 113.600 113.600 113.600 157.203 L 113.600 200.807 135.700 200.703 L 157.800 200.600 157.902 164.900 L 158.004 129.200 165.002 129.200 L 172.000 129.200 172.000 122.000 L 172.000 114.800 214.200 114.800 L 256.400 114.800 256.400 122.000 L 256.400 129.200 263.600 129.200 L 270.800 129.200 270.800 165.000 L 270.800 200.800 292.800 200.800 L 314.800 200.800 314.800 157.200 L 314.800 113.600 307.800 113.600 L 300.800 113.600 300.800 106.400 L 300.800 99.200 293.600 99.200 L 286.400 99.200 286.400 92.200 L 286.400 85.200 279.200 85.200 L 272.000 85.200 272.000 78.000 L 272.000 70.800 214.200 70.800 L 156.400 70.800 156.400 78.000 M99.200 220.800 L 99.200 228.000 92.200 228.000 L 85.200 228.000 85.200 235.000 L 85.200 242.000 78.000 242.000 L 70.800 242.000 70.800 314.200 L 70.800 386.400 78.000 386.400 L 85.200 386.400 85.200 393.400 L 85.200 400.400 92.200 400.400 L 99.200 400.400 99.200 407.600 L 99.200 414.800 214.200 414.800 L 329.200 414.800 329.200 407.600 L 329.200 400.400 336.400 400.400 L 343.600 400.400 343.600 393.409 L 343.600 386.418 350.700 386.309 L 357.800 386.200 357.800 314.200 L 357.800 242.200 350.700 242.091 L 343.600 241.982 343.600 234.991 L 343.600 228.000 336.400 228.000 L 329.200 228.000 329.200 220.800 L 329.200 213.600 214.200 213.600 L 99.200 213.600 99.200 220.800 M242.400 292.600 L 242.400 327.600 235.200 327.600 L 228.000 327.600 228.000 342.000 L 228.000 356.400 214.400 356.400 L 200.800 356.400 200.800 342.000 L 200.800 327.600 193.600 327.600 L 186.400 327.600 186.400 292.600 L 186.400 257.600 214.400 257.600 L 242.400 257.600 242.400 292.600 " stroke="none" fill="#1cc4fc" fill-rule="evenodd"></path><path id="path1" d="" stroke="none" fill="#20c4fc" fill-rule="evenodd"></path></g></svg>